# Exported from Wings 3D 1.4.1
mtllib ButtonConsole.mtl
o sphere2
#65 vertices, 65 faces
v 3.22000000 6.83254553 2.27460287
v 2.97489209 7.77317055 1.47858679
v 2.27688384 8.57059394 0.80375695
v 1.23224065 9.10341521 0.35285006
v 2.6313246e-16 9.29051716 0.19451262
v -1.23224065 9.10341521 0.35285006
v -2.27688384 8.57059394 0.80375695
v -2.97489209 7.77317055 1.47858679
v -3.22000000 6.83254553 2.27460287
v -2.97489209 5.89192051 3.07061895
v -2.27688384 5.09449712 3.74544879
v -1.23224065 4.56167584 4.19635568
v -5.2554008e-16 4.37457389 4.35469312
v 1.23224065 4.56167584 4.19635568
v 2.27688384 5.09449712 3.74544879
v 2.97489209 5.89192051 3.07061895
v 2.97489209 7.62856160 3.21522789
v 2.74844192 8.49758581 2.47980493
v 2.10356637 9.23430896 1.85634345
v 1.13844192 9.72657163 1.43975981
v 2.4812393e-16 9.89943129 1.29347508
v -1.13844192 9.72657163 1.43975981
v -2.10356637 9.23430896 1.85634345
v -2.74844192 8.49758581 2.47980493
v -2.97489209 7.62856160 3.21522789
v -2.74844192 6.75953740 3.95065085
v -2.10356637 6.02281425 4.57411233
v -1.13844192 5.53055158 4.99069598
v -4.8051448e-16 5.35769192 5.13698070
v 1.13844192 5.53055158 4.99069598
v 2.10356637 6.02281425 4.57411233
v 2.74844192 6.75953740 3.95065085
v 2.27688384 8.30339145 4.01265128
v 2.10356637 8.96851378 3.44978291
v 1.61000000 9.53237727 2.97260616
v 0.87132572 9.90913880 2.65376684
v 2.0538325e-16 10.04143986 2.54180536
v -0.87132572 9.90913880 2.65376684
v -1.61000000 9.53237727 2.97260616
v -2.10356637 8.96851378 3.44978291
v -2.27688384 8.30339145 4.01265128
v -2.10356637 7.63826912 4.57551965
v -1.61000000 7.07440563 5.05269640
v -0.87132572 6.69764410 5.37153572
v -3.5229245e-16 6.56534304 5.48349720
v 0.87132572 6.69764410 5.37153572
v 1.61000000 7.07440563 5.05269640
v 2.10356637 7.63826912 4.57551965
v 1.23224065 8.75429834 4.54547255
v 1.13844192 9.11425995 4.24085039
v 0.87132572 9.41942067 3.98260419
v 0.47155808 9.62332254 3.81004959
v 1.4141731e-16 9.69492336 3.74945648
v -0.47155808 9.62332254 3.81004959
v -0.87132572 9.41942067 3.98260419
v -1.13844192 9.11425995 4.24085039
v -1.23224065 8.75429834 4.54547255
v -1.13844192 8.39433672 4.85009472
v -0.87132572 8.08917600 5.10834092
v -0.47155808 7.88527413 5.28089551
v -1.6039461e-16 7.81367331 5.34148863
v 0.47155808 7.88527413 5.28089551
v 0.87132572 8.08917600 5.10834092
v 1.13844192 8.39433672 4.85009472
v 6.5964328e-17 8.91263578 4.73257450
vt 0.0000000e+0 0.20508600
vt 0.0000000e+0 0.56144485
vt 0.0000000e+0 0.78519221
vt 1.0250949e-2 0.89813784
vt 1.5611243e-2 0.12660299
vt 1.5611243e-2 0.28356902
vt 2.9833984e-2 0.44669626
vt 3.5496881e-2 0.68770124
vt 4.8915826e-2 0.72134409
vt 5.2722235e-2 0.93618107
vt 5.7225198e-2 0.83259689
vt 5.8145517e-2 0.50051626
vt 6.0068300e-2 6.0068300e-2
vt 6.0068300e-2 0.35010371
vt 6.1785192e-2 0.60875086
vt 8.7497324e-2 0.98136726
vt 0.10193305 0.53816001
vt 0.11071794 0.88235446
vt 0.11085593 0.77265455
vt 0.11143498 0.41954313
vt 0.11539175 0.71095891
vt 0.12660299 1.5611243e-2
vt 0.12660299 0.39456077
vt 0.12676277 0.44866583
vt 0.13138201 0.63287254
vt 0.14811659 0.47272502
vt 0.15102093 0.56024631
vt 0.15635415 0.93940378
vt 0.16871365 0.82852784
vt 0.17481597 0.48772127
vt 0.19824173 0.72134409
vt 0.19936608 1.00000000
vt 0.20030258 0.64215905
vt 0.20222271 0.56838075
vt 0.20417736 0.49327569
vt 0.20508600 0.0000000e+0
vt 0.20508600 0.41017201
vt 0.20634019 0.41017201
vt 0.22012358 0.89038541
vt 0.23378793 0.48925605
vt 0.25377829 0.56292063
vt 0.26123121 0.47566890
vt 0.26667935 0.95597429
vt 0.26961289 0.63647009
vt 0.28151976 0.71528250
vt 0.28356902 1.5611243e-2
vt 0.28356902 0.39456077
vt 0.28380759 0.45275303
vt 0.30062948 0.42446704
vt 0.30394856 0.54341759
vt 0.34037021 0.61600121
vt 0.34963490 0.50810246
vt 0.35010371 6.0068300e-2
vt 0.35010371 0.35010371
vt 0.36251624 0.69621213
vt 0.38070761 0.45582797
vt 0.39456077 0.12660299
vt 0.39456077 0.28356902
vt 0.40453243 0.57197307
vt 0.41017201 0.15321797
vt 0.41017201 0.20508600
vt 0.41017201 0.57499625
vt 0.43869319 0.27093713
vt 0.45004443 2.7664634e-2
vt 0.45428193 0.50773813
vt 0.46684748 0.21597152
vt 0.47347489 0.10742382
vt 0.47906023 0.61651435
vt 0.50338007 0.44403010
vt 0.51149103 0.17906240
vt 0.51981249 0.55437595
vt 0.52181014 0.29762404
vt 0.52402293 0.33250927
vt 0.53063548 7.2604928e-3
vt 0.53456031 0.26716866
vt 0.54380252 8.5632606e-2
vt 0.55583452 0.24437439
vt 0.55914190 0.38606495
vt 0.56093723 0.15845093
vt 0.56331781 0.49568544
vt 0.58234141 0.23054396
vt 0.59016731 0.59377639
vt 0.61083121 0.30802505
vt 0.61122276 0.22605139
vt 0.61202317 0.15207584
vt 0.61286300 7.8792654e-2
vt 0.61354579 0.0000000e+0
vt 0.61494274 0.44399254
vt 0.61915131 0.33250927
vt 0.62325555 0.54734078
vt 0.63996992 0.23098412
vt 0.66293170 0.15950389
vt 0.66429769 0.50775997
vt 0.66604397 0.24517385
vt 0.67038421 0.39451355
vt 0.68193128 8.6918160e-2
vt 0.68662546 0.26806695
vt 0.69565949 0.33184773
vt 0.69707194 8.0128305e-3
vt 0.69842815 0.29823763
vt 0.71181298 0.18128072
vt 0.75196095 0.11067028
vt 0.75524406 0.21922780
vt 0.77785977 3.0867122e-2
vt 0.78141975 0.27441646
vt 0.81376061 0.15831899
vn 0.95228747 -0.19715800 -0.23297488
vn 0.87979891 8.1023811e-2 -0.46838982
vn 0.67336893 0.31685496 -0.66796498
vn 0.36442464 0.47443230 -0.80131684
vn -4.1297103e-17 0.52976610 -0.84814378
vn -0.36442464 0.47443230 -0.80131684
vn -0.67336893 0.31685496 -0.66796498
vn -0.87979891 8.1023811e-2 -0.46838982
vn -0.95228747 -0.19715800 -0.23297488
vn -0.87979891 -0.47533981 2.4400743e-3
vn -0.67336893 -0.71117096 0.20201523
vn -0.36442464 -0.86874829 0.33536709
vn -1.3839941e-17 -0.92408210 0.38219403
vn 0.36442464 -0.86874829 0.33536709
vn 0.67336893 -0.71117096 0.20201523
vn 0.87979891 -0.47533981 2.4400743e-3
vn 0.92368212 0.24751762 0.29248312
vn 0.85337100 0.51734325 6.4139703e-2
vn 0.65314189 0.74609036 -0.12944050
vn 0.35347784 0.89893430 -0.25878666
vn -2.1568586e-17 0.95260596 -0.30420699
vn -0.35347784 0.89893430 -0.25878666
vn -0.65314189 0.74609036 -0.12944050
vn -0.85337100 0.51734325 6.4139703e-2
vn -0.92368212 0.24751762 0.29248312
vn -0.85337100 -2.2308003e-2 0.52082654
vn -0.65314189 -0.25105512 0.71440675
vn -0.35347784 -0.40389906 0.84375291
vn -1.4379058e-17 -0.45757071 0.88917324
vn 0.35347784 -0.40389906 0.84375291
vn 0.65314189 -0.25105512 0.71440675
vn 0.85337100 -2.2308003e-2 0.52082654
vn 0.70658450 0.45712159 0.54016498
vn 0.65279895 0.66352875 0.36549025
vn 0.49963069 0.83851229 0.21740817
vn 0.27039818 0.95543256 0.11846289
vn -7.1443235e-18 0.99648949 8.3717922e-2
vn -0.27039818 0.95543256 0.11846289
vn -0.49963069 0.83851229 0.21740817
vn -0.65279895 0.66352875 0.36549025
vn -0.70658450 0.45712159 0.54016498
vn -0.65279895 0.25071443 0.71483970
vn -0.49963069 7.5730889e-2 0.86292179
vn -0.27039818 -4.1189375e-2 0.96186707
vn -1.0716485e-17 -8.2246312e-2 0.99661203
vn 0.27039818 -4.1189375e-2 0.96186707
vn 0.49963069 7.5730889e-2 0.86292179
vn 0.65279895 0.25071443 0.71483970
vn 0.38219484 0.59694828 0.70539340
vn 0.35310199 0.70859487 0.61091103
vn 0.27025256 0.80324429 0.53081275
vn 0.14625963 0.86648700 0.47729278
vn 3.5494904e-18 0.88869489 0.45849907
vn -0.14625963 0.86648700 0.47729278
vn -0.27025256 0.80324429 0.53081275
vn -0.35310199 0.70859487 0.61091103
vn -0.38219484 0.59694828 0.70539340
vn -0.35310199 0.48530169 0.79987578
vn -0.27025256 0.39065228 0.87997406
vn -0.14625963 0.32740956 0.93349403
vn 3.5494904e-18 0.30520167 0.95228774
vn 0.14625963 0.32740956 0.93349403
vn 0.27025256 0.39065228 0.87997406
vn 0.35310199 0.48530169 0.79987578
vn -1.5930360e-17 0.64599076 0.76334523
g sphere2_sphere2_auv
usemtl sphere2_auv
s 1
f 1/1/1 16/5/16 15/13/15 14/22/14 13/36/13 12/46/12 11/53/11 10/57/10 9/61/9 8/58/8 7/54/7 6/47/6 5/37/5 4/23/4 3/14/3 2/6/2
f 1/29/1 17/18/17 32/11/32 16/19/16
f 2/39/2 18/28/18 17/18/17 1/29/1
f 3/43/3 19/32/19 18/28/18 2/39/2
f 4/45/4 20/44/20 19/51/19 3/55/3
f 5/31/5 21/33/21 20/44/20 4/45/4
f 6/21/6 22/25/22 21/33/21 5/31/5
f 7/8/7 23/15/23 22/25/22 6/21/6
f 8/65/8 24/71/24 23/68/23 7/62/7
f 9/69/9 25/80/25 24/71/24 8/65/8
f 10/78/10 26/88/26 25/80/25 9/69/9
f 11/89/11 27/95/27 26/88/26 10/78/10
f 12/74/12 28/76/28 27/67/27 11/64/11
f 13/87/13 29/86/29 28/76/28 12/74/12
f 14/99/14 30/96/30 29/86/29 13/87/13
f 15/104/15 31/102/31 30/96/30 14/99/14
f 16/19/16 32/11/32 31/3/31 15/9/15
f 17/18/17 33/10/33 48/4/48 32/11/32
f 18/28/18 34/16/34 33/10/33 17/18/17
f 19/51/19 35/50/35 34/52/34 18/59/18
f 20/44/20 36/41/36 35/50/35 19/51/19
f 21/33/21 37/34/37 36/41/36 20/44/20
f 22/25/22 38/27/38 37/34/37 21/33/21
f 23/15/23 39/17/39 38/27/38 22/25/22
f 24/2/24 40/12/40 39/17/39 23/15/23
f 25/80/25 41/90/41 40/82/40 24/71/24
f 26/88/26 42/93/42 41/90/41 25/80/25
f 27/67/27 43/70/43 42/66/42 26/60/26
f 28/76/28 44/79/44 43/70/43 27/67/27
f 29/86/29 45/85/45 44/79/44 28/76/28
f 30/96/30 46/92/46 45/85/45 29/86/29
f 31/102/31 47/101/47 46/92/46 30/96/30
f 32/106/32 48/103/48 47/101/47 31/102/31
f 33/105/33 49/100/49 64/97/64 48/103/48
f 34/52/34 50/48/50 49/49/49 33/56/33
f 35/50/35 51/42/51 50/48/50 34/52/34
f 36/41/36 52/40/52 51/42/51 35/50/35
f 37/34/37 53/35/53 52/40/52 36/41/36
f 38/27/38 54/30/54 53/35/53 37/34/37
f 39/17/39 55/26/55 54/30/54 38/27/38
f 40/12/40 56/24/56 55/26/55 39/17/39
f 41/7/41 57/20/57 56/24/56 40/12/40
f 42/66/42 58/75/58 57/72/57 41/63/41
f 43/70/43 59/77/59 58/75/58 42/66/42
f 44/79/44 60/81/60 59/77/59 43/70/43
f 45/85/45 61/84/61 60/81/60 44/79/44
f 46/92/46 62/91/62 61/84/61 45/85/45
f 47/101/47 63/94/63 62/91/62 46/92/46
f 48/103/48 64/97/64 63/94/63 47/101/47
f 49/100/49 65/83/65 64/97/64
f 50/98/50 65/83/65 49/100/49
f 51/42/51 65/38/65 50/48/50
f 52/40/52 65/38/65 51/42/51
f 53/35/53 65/38/65 52/40/52
f 54/30/54 65/38/65 53/35/53
f 55/26/55 65/38/65 54/30/54
f 56/24/56 65/38/65 55/26/55
f 57/72/57 65/83/65 56/73/56
f 58/75/58 65/83/65 57/72/57
f 59/77/59 65/83/65 58/75/58
f 60/81/60 65/83/65 59/77/59
f 61/84/61 65/83/65 60/81/60
f 62/91/62 65/83/65 61/84/61
f 63/94/63 65/83/65 62/91/62
f 64/97/64 65/83/65 63/94/63
o cube1
#10 vertices, 7 faces
v -5.00000000 4.05100037 4.96182830
v -5.00000000 10.00529297 -5.03817170
v 5.00000000 10.00529297 -5.03817170
v 5.00000000 4.05100037 4.96182830
v -5.00000000 5.2929673e-3 4.96182830
v -5.00000000 5.2929673e-3 -5.03817170
v 5.00000000 5.2929673e-3 -5.03817170
v 5.00000000 5.2929673e-3 4.96182830
v 5.00000000 10.00529297 -3.8171704e-2
v -5.00000000 10.00529297 -3.8171704e-2
vt 0.0000000e+0 3.6082248e-16
vt 0.0000000e+0 0.39402996
vt 0.0000000e+0 0.52888687
vt 1.6653345e-16 0.13485691
vt 6.6613381e-16 0.39402996
vt 0.16666667 0.72736329
vt 0.33333333 0.0000000e+0
vt 0.33333333 0.39402996
vt 0.33333333 0.72736329
vt 0.33333333 0.72736329
vt 0.33333333 0.13485691
vt 0.33333333 0.33333333
vt 0.33333333 2.7755576e-17
vt 0.33333333 0.39402996
vt 0.50000000 0.33333333
vt 0.66666667 0.39402996
vt 0.66666667 0.72736329
vt 0.66666667 0.0000000e+0
vt 0.66666667 0.13485691
vt 0.66666667 0.33333333
vt 0.66666667 0.33333333
vt 0.66666667 0.50000000
vt 1.00000000 0.0000000e+0
vt 1.00000000 0.33333333
vt 1.00000000 0.50000000
vn -0.46975735 0.30208733 0.82950062
vn -0.57735027 0.57735027 -0.57735027
vn 0.57735027 0.57735027 -0.57735027
vn 0.46975735 0.30208733 0.82950062
vn -0.57735027 -0.57735027 0.57735027
vn -0.57735027 -0.57735027 -0.57735027
vn 0.57735027 -0.57735027 -0.57735027
vn 0.57735027 -0.57735027 0.57735027
vn 0.48302179 0.79363909 0.36990126
vn -0.48302179 0.79363909 0.36990126
g cube1_cube1_auv
usemtl cube1_auv
s 1
f 66/110/66 69/117/69 74/120/74 75/111/75
f 66/110/66 70/107/70 73/113/73 69/117/69
f 67/128/67 75/126/75 74/130/74 68/131/68
f 68/116/68 72/114/72 71/122/71 67/123/67
f 71/130/71 72/127/72 73/124/73 70/129/70
f 74/112/74 69/109/69 73/108/73 72/114/72 68/115/68
f 75/121/75 67/118/67 71/119/71 70/124/70 66/125/66
